<?xml version="1.0" encoding="utf-8"?>
<!-- Generator: Adobe Illustrator 24.1.1, SVG Export Plug-In . SVG Version: 6.00 Build 0)  -->
<svg version="1.1" id="레이어_1" xmlns="http://www.w3.org/2000/svg" xmlns:xlink="http://www.w3.org/1999/xlink" x="0px"
	 y="0px" viewBox="0 0 40 40" style="enable-background:new 0 0 40 40;" xml:space="preserve">
<style type="text/css">
	.st0{fill:#45B035;}
	.st1{opacity:0.6;fill:#38A038;}
	.st2{fill:#FFFFFF;}
	.st3{opacity:0.6;fill:#2FAC38;}
	.st4{fill:#38A038;}
</style>
<g>
	<path class="st0" d="M40,36.55c0,1.9-1.55,3.45-3.45,3.45H3.45C1.55,40,0,38.45,0,36.55V3.45C0,1.55,1.55,0,3.45,0h33.1
		C38.45,0,40,1.55,40,3.45V36.55z"/>
	<polygon class="st1" points="10.45,28.75 18.22,40 36.8,39.99 40,36.25 29.55,11.25 25.22,25.63 14.72,15.66 	"/>
	<g>
		<polygon class="st2" points="23.04,11.25 23.04,20.08 16.99,11.25 10.45,11.25 10.45,28.75 16.96,28.75 16.96,19.92 23.01,28.75 
			29.55,28.75 29.55,11.25 		"/>
	</g>
	<path class="st3" d="M36.55,0.57c1.59,0,2.88,1.29,2.88,2.88v33.1c0,1.59-1.29,2.88-2.88,2.88H3.45c-1.59,0-2.88-1.29-2.88-2.88
		V3.45c0-1.59,1.29-2.88,2.88-2.88H36.55 M36.55,0H3.45C1.55,0,0,1.55,0,3.45v33.1C0,38.45,1.55,40,3.45,40h33.1
		c1.9,0,3.45-1.55,3.45-3.45V3.45C40,1.55,38.45,0,36.55,0L36.55,0z"/>
</g>
<path class="st4" d="M17.41,11.61"/>
</svg>
